<svg id="圖層_1" data-name="圖層 1" xmlns="http://www.w3.org/2000/svg" viewBox="0 0 108 108"><defs><style>.cls-1{fill:#348cc5;}</style></defs><path class="cls-1" d="M54.93,11.5a45,45,0,1,0,45,45A45,45,0,0,0,54.93,11.5Zm0,84a39,39,0,1,1,39-39A39,39,0,0,1,54.93,95.5Z"/><path class="cls-1" d="M65.67,58.68A16.19,16.19,0,0,0,61.84,56a43.49,43.49,0,0,0-5.09-2.11,25.76,25.76,0,0,1-3.5-1.44A9.68,9.68,0,0,1,51,50.92a4.7,4.7,0,0,1-1.21-1.8,6.36,6.36,0,0,1-.36-2.21,7.18,7.18,0,0,1,.37-2.37,4.89,4.89,0,0,1,1.12-1.83,5.1,5.1,0,0,1,1.91-1.19,7.84,7.84,0,0,1,2.76-.43,6.18,6.18,0,0,1,2.65.54,5.47,5.47,0,0,1,2,1.57,7.28,7.28,0,0,1,1.23,2.46,11.34,11.34,0,0,1,.43,3.26h6.86A17.27,17.27,0,0,0,68,43.7a12,12,0,0,0-2.1-4A10.92,10.92,0,0,0,62.53,37a13.26,13.26,0,0,0-4.46-1.4v-6.3H53.48V35.5A15.09,15.09,0,0,0,49,36.7a11.06,11.06,0,0,0-3.44,2.4,10.3,10.3,0,0,0-2.19,3.47,11.92,11.92,0,0,0-.78,4.4,11.74,11.74,0,0,0,.86,4.66,10.57,10.57,0,0,0,2.47,3.5,16.14,16.14,0,0,0,3.87,2.63,36,36,0,0,0,5.08,2.05,23,23,0,0,1,3.35,1.39,9.9,9.9,0,0,1,2.24,1.58,5.27,5.27,0,0,1,1.25,1.85,6.29,6.29,0,0,1,.38,2.21,5.4,5.4,0,0,1-1.8,4.26,7.64,7.64,0,0,1-5.19,1.59,9.67,9.67,0,0,1-2.61-.36,6.16,6.16,0,0,1-2.33-1.23,6.56,6.56,0,0,1-1.67-2.34,9.22,9.22,0,0,1-.65-3.7H41a14.83,14.83,0,0,0,1,5.75,11.42,11.42,0,0,0,2.67,4,11.63,11.63,0,0,0,3.81,2.39,16.73,16.73,0,0,0,4.48,1.06v5.54h4.55V78.19a16.8,16.8,0,0,0,4.74-1.13,11.43,11.43,0,0,0,3.61-2.32A9.88,9.88,0,0,0,68.1,71.3a11.94,11.94,0,0,0,.81-4.52,11.76,11.76,0,0,0-.84-4.62A10.25,10.25,0,0,0,65.67,58.68Z"/></svg>