<svg xmlns="http://www.w3.org/2000/svg" width="15.857" height="16" viewBox="0 0 15.857 16">
  <path id="icon_subscript" d="M16.6,4.583,12.14.121a.413.413,0,0,0-.584,0L11.538.14a1.447,1.447,0,0,0-.243,1.725L6.626,5.871a1.948,1.948,0,0,0-2.674.077l-.028.028a.413.413,0,0,0,0,.584L6.6,9.232l-2.6,2.6c-.052.054-1.284,1.323-2.094,2.334-.771.962-.924,1.138-.932,1.147a.413.413,0,0,0,.582.582c.007-.006.179-.156,1.147-.932,1.01-.81,2.28-2.042,2.338-2.1l2.6-2.6,2.53,2.53a.413.413,0,0,0,.584,0l.028-.028a1.948,1.948,0,0,0,.077-2.674l4.006-4.668a1.447,1.447,0,0,0,1.725-.243l.019-.019A.413.413,0,0,0,16.6,4.583Z" transform="translate(-0.865 0)" fill="#fff"/>
</svg>
