<svg id="圖層_1" data-name="圖層 1" xmlns="http://www.w3.org/2000/svg" viewBox="0 0 108 108"><defs><style>.cls-1{fill:#348cc5;}</style></defs><path class="cls-1" d="M104.29,37.24c-3.21-16.07-13.83-22.09-22.17-24.31C69,9.44,58.33,18.93,54,23.61,49.67,18.93,39,9.44,25.88,12.93c-8.34,2.22-19,8.24-22.17,24.31-1,5.23-.06,19.07,7,28.85,10.75,14.83,33.11,31.18,41.59,35.42a3.07,3.07,0,0,0,1.34.32,2.07,2.07,0,0,0,.35,0,2.07,2.07,0,0,0,.35,0,3.07,3.07,0,0,0,1.34-.32c8.48-4.24,30.84-20.59,41.59-35.42C104.35,56.31,105.34,42.47,104.29,37.24Z"/></svg>