<svg xmlns="http://www.w3.org/2000/svg" width="14.657" height="11.313" viewBox="0 0 14.657 11.313">
  <g id="icon_return" transform="translate(-18 -21.343)">
    <g id="Component_18_70" data-name="Component 18 – 70" transform="translate(18 21.343)">
      <g id="Union_8" data-name="Union 8" transform="translate(4902 -1361)" fill="#fff">
        <path d="M -4896.34228515625 1371.605834960938 L -4901.29345703125 1366.65625 L -4896.34375 1361.706665039062 L -4895.6357421875 1362.414428710938 L -4898.525390625 1365.303833007812 L -4899.37890625 1366.157348632812 L -4898.171875 1366.157348632812 L -4887.84326171875 1366.157348632812 L -4887.84326171875 1367.156494140625 L -4898.1728515625 1367.156494140625 L -4899.38037109375 1367.156494140625 L -4898.5263671875 1368.010131835938 L -4895.6357421875 1370.8994140625 L -4896.34228515625 1371.605834960938 Z" stroke="none"/>
        <path d="M -4896.34375 1362.413818359375 L -4900.5859375 1366.656494140625 L -4900.58544921875 1366.656494140625 L -4896.3427734375 1362.414428710938 L -4896.34375 1362.413818359375 M -4896.34375 1360.999633789062 L -4894.9287109375 1362.414428710938 L -4898.171875 1365.657348632812 L -4887.34326171875 1365.657348632812 L -4887.34326171875 1367.656494140625 L -4898.1728515625 1367.656494140625 L -4894.9287109375 1370.899291992188 L -4896.34228515625 1372.312866210938 L -4902.00048828125 1366.65625 L -4896.34375 1360.999633789062 Z" stroke="none" fill="#707070"/>
      </g>
    </g>
  </g>
</svg>
