<svg xmlns="http://www.w3.org/2000/svg" width="16.002" height="16.01" viewBox="0 0 16.002 16.01">
  <g id="icon_donate" transform="translate(-0.13)">
    <path id="Path_90" data-name="Path 90" d="M233.84,103.812a9.288,9.288,0,0,1-3.645-.671,4.45,4.45,0,0,1-.773-.43v.969c0,.368.431.777,1.152,1.1a9.312,9.312,0,0,0,6.532,0c.721-.318,1.152-.728,1.152-1.1v-.969a4.449,4.449,0,0,1-.773.43A9.289,9.289,0,0,1,233.84,103.812Z" transform="translate(-222.126 -99.5)" fill="#555b5d"/>
    <path id="Path_91" data-name="Path 91" d="M312.636,344.54a8.343,8.343,0,0,0,3.266-.592c.721-.318,1.152-.728,1.152-1.1v-.969a4.45,4.45,0,0,1-.773.43,9.289,9.289,0,0,1-3.645.671,11.075,11.075,0,0,1-1.615-.116,5.428,5.428,0,0,1-.26,1.5A9.947,9.947,0,0,0,312.636,344.54Z" transform="translate(-300.922 -331.199)" fill="#555b5d"/>
    <path id="Path_92" data-name="Path 92" d="M230.856,184.612a8.778,8.778,0,0,0,2.983.478,8.343,8.343,0,0,0,3.266-.592c.721-.318,1.152-.728,1.152-1.1v-.969a4.446,4.446,0,0,1-.773.43,10.228,10.228,0,0,1-7.289,0,4.449,4.449,0,0,1-.773-.43v1.024A5.493,5.493,0,0,1,230.856,184.612Z" transform="translate(-222.126 -176.732)" fill="#555b5d"/>
    <path id="Path_93" data-name="Path 93" d="M303.344,264.815a8.343,8.343,0,0,0,3.266-.592c.721-.318,1.152-.728,1.152-1.1v-.969a4.45,4.45,0,0,1-.773.43,9.289,9.289,0,0,1-3.645.671,10.811,10.811,0,0,1-2.175-.215,5.41,5.41,0,0,1,.508,1.634A9.993,9.993,0,0,0,303.344,264.815Z" transform="translate(-291.63 -253.965)" fill="#555b5d"/>
    <path id="Path_94" data-name="Path 94" d="M230.573,2.783a8.343,8.343,0,0,0,3.266.592,8.343,8.343,0,0,0,3.266-.592c.721-.318,1.152-.728,1.152-1.1S237.826.91,237.1.592a9.312,9.312,0,0,0-6.532,0c-.721.318-1.152.728-1.152,1.1S229.852,2.465,230.573,2.783Z" transform="translate(-222.125)" fill="#555b5d"/>
    <path id="Path_95" data-name="Path 95" d="M9.164,227.7a4.517,4.517,0,1,0-4.517,4.517A4.522,4.522,0,0,0,9.164,227.7Zm-3.813,2.487H5.116v.77H4.178v-.77H2.914v-.938H5.352a.561.561,0,0,0,0-1.121H4.22a1.458,1.458,0,0,1-.042-2.915v-.771h.938v.77H6.13v.938H4.22a.52.52,0,0,0,0,1.041H5.352a1.5,1.5,0,1,1,0,3Z" transform="translate(0 -216.207)" fill="#555b5d"/>
  </g>
</svg>
