<svg id="圖層_1" data-name="圖層 1" xmlns="http://www.w3.org/2000/svg" viewBox="0 0 108 108"><defs><style>.cls-1{fill:none;stroke:#555b5d;stroke-linecap:round;stroke-linejoin:round;stroke-width:5px;}</style></defs><path class="cls-1" d="M90.42,60.93V48H81.34a27,27,0,0,0-3.36-8l6.47-6.47-9.14-9.14L68.73,31a27,27,0,0,0-7.85-3.11V18.47H48v9.66a27.26,27.26,0,0,0-7.5,3.24l-6.93-6.93L24.4,33.58l7,7a26.77,26.77,0,0,0-3,7.39h-10V60.93h10a27,27,0,0,0,3,7.39l-7,7,9.13,9.13,6.93-6.93A27,27,0,0,0,48,80.81v9.66H60.88V81a26.75,26.75,0,0,0,7.85-3.12l6.58,6.58,9.14-9.13L78,68.89a27.14,27.14,0,0,0,3.36-8Z"/><circle class="cls-1" cx="54.42" cy="54.47" r="12"/></svg>