<svg id="圖層_1" data-name="圖層 1" xmlns="http://www.w3.org/2000/svg" viewBox="0 0 108 108"><defs><style>.cls-1{fill:#2d2d2d;}</style></defs><path class="cls-1" d="M96.33,41.45A2.5,2.5,0,0,0,94,39.85H66L55.89,14.93a2.5,2.5,0,0,0-2.59-1.54,2.51,2.51,0,0,0-2.6,1.54L40.65,39.85H12.59a2.5,2.5,0,0,0-1.68,4.35l22,20.09L26.2,90.6A2.5,2.5,0,0,0,30,93.33L53.3,78.58,76.63,93.33a2.5,2.5,0,0,0,3.76-2.73L73.67,64.29l22-20.09A2.51,2.51,0,0,0,96.33,41.45ZM69.19,61.61a2.51,2.51,0,0,0-.74,2.47L74,85.75,54.82,73.63a2.46,2.46,0,0,0-1.52-.37,2.49,2.49,0,0,0-1.53.37L32.6,85.75l5.54-21.67a2.51,2.51,0,0,0-.74-2.47L19,44.85H42.33a2.5,2.5,0,0,0,2.32-1.56L53.3,21.87l8.64,21.42a2.5,2.5,0,0,0,2.32,1.56H87.55Z"/></svg>