<svg xmlns="http://www.w3.org/2000/svg" width="28.776" height="18.499" viewBox="0 0 28.776 18.499">
  <g id="icon_livecam" transform="translate(0 -85.333)">
    <g id="Group_427" data-name="Group 427" transform="translate(0 85.333)">
      <g id="Group_426" data-name="Group 426" transform="translate(0 0)">
        <path id="Path_127" data-name="Path 127" d="M28.289,87.542a1.028,1.028,0,0,0-1-.045l-6.735,3.368V88.416a3.083,3.083,0,0,0-3.083-3.083H3.083A3.083,3.083,0,0,0,0,88.416v12.333a3.083,3.083,0,0,0,3.083,3.083H17.471a3.083,3.083,0,0,0,3.083-3.083V98.3l6.735,3.373a1.028,1.028,0,0,0,1.487-.925V88.416A1.028,1.028,0,0,0,28.289,87.542ZM18.5,100.749a1.028,1.028,0,0,1-1.028,1.028H3.083a1.028,1.028,0,0,1-1.028-1.028V88.416a1.028,1.028,0,0,1,1.028-1.028H17.471A1.028,1.028,0,0,1,18.5,88.416v12.333Zm8.222-1.663L20.554,96V93.162l6.166-3.083Z" transform="translate(0 -85.333)" fill="#fff"/>
      </g>
    </g>
    <g id="Group_429" data-name="Group 429" transform="translate(6.166 90.472)">
      <g id="Group_428" data-name="Group 428" transform="translate(0 0)">
        <path id="Path_128" data-name="Path 128" d="M106.511,170.667a4.111,4.111,0,1,0,4.111,4.111A4.111,4.111,0,0,0,106.511,170.667Zm0,6.166a2.055,2.055,0,1,1,2.055-2.055A2.055,2.055,0,0,1,106.511,176.833Z" transform="translate(-102.4 -170.667)" fill="#fff"/>
      </g>
    </g>
  </g>
</svg>
