<svg id="圖層_1" data-name="圖層 1" xmlns="http://www.w3.org/2000/svg" viewBox="0 0 108 108"><defs><style>.cls-1{fill:#348cc5;}</style></defs><path class="cls-1" d="M49,84.62H9V40.1H87v5.21a3,3,0,0,0,6,0v-27a3,3,0,0,0-3-3H76.28V13.38a3,3,0,1,0-6,0v1.93h-11V13.38a3,3,0,1,0-6,0v1.93h-11V13.38a3,3,0,0,0-6,0v1.93h-11V13.38a3,3,0,0,0-6,0v1.93H6a3,3,0,0,0-3,3V87.62a3,3,0,0,0,3,3H49a3,3,0,0,0,0-6ZM19.28,21.31v4.34a3,3,0,0,0,6,0V21.31h11v4.34a3,3,0,1,0,6,0V21.31h11v4.34a3,3,0,1,0,6,0V21.31h11v4.34a3,3,0,1,0,6,0V21.31H87V34.1H9V21.31Z"/><path class="cls-1" d="M80.5,52.31A24.5,24.5,0,1,0,105,76.81,24.53,24.53,0,0,0,80.5,52.31Zm0,43A18.5,18.5,0,1,1,99,76.81,18.52,18.52,0,0,1,80.5,95.31Z"/><path class="cls-1" d="M52,52H18.31a3,3,0,1,0,0,6H52a3,3,0,0,0,0-6Z"/><path class="cls-1" d="M47,73a3,3,0,0,0,0-6H18.31a3,3,0,1,0,0,6Z"/><path class="cls-1" d="M89.23,75.28H82.05V68.57a3,3,0,0,0-6,0v9.71a3,3,0,0,0,3,3H89.23a3,3,0,0,0,0-6Z"/></svg>