<svg xmlns="http://www.w3.org/2000/svg" width="18.462" height="16" viewBox="0 0 18.462 16">
  <g id="icon_filter" transform="translate(0 -32)">
    <g id="Group_312" data-name="Group 312" transform="translate(0 32)">
      <g id="Group_311" data-name="Group 311">
        <path id="Path_99" data-name="Path 99" d="M6.154,32a1.231,1.231,0,0,0-1.231,1.231H1.231a1.231,1.231,0,1,0,0,2.462H4.923a1.231,1.231,0,1,0,2.462,0V33.231A1.231,1.231,0,0,0,6.154,32Z" transform="translate(0 -32)" fill="#555b5d"/>
      </g>
    </g>
    <g id="Group_314" data-name="Group 314" transform="translate(12.308 37.538)">
      <g id="Group_313" data-name="Group 313">
        <path id="Path_100" data-name="Path 100" d="M324.923,177.231h-2.462a1.231,1.231,0,1,0-2.462,0v2.462a1.231,1.231,0,1,0,2.462,0h2.462a1.231,1.231,0,0,0,0-2.462Z" transform="translate(-320 -176)" fill="#555b5d"/>
      </g>
    </g>
    <g id="Group_316" data-name="Group 316" transform="translate(8 33.231)">
      <g id="Group_315" data-name="Group 315">
        <path id="Path_101" data-name="Path 101" d="M217.231,64h-8a1.231,1.231,0,0,0,0,2.462h8a1.231,1.231,0,0,0,0-2.462Z" transform="translate(-208 -64)" fill="#555b5d"/>
      </g>
    </g>
    <g id="Group_318" data-name="Group 318" transform="translate(0 38.769)">
      <g id="Group_317" data-name="Group 317">
        <path id="Path_102" data-name="Path 102" d="M10.462,208H1.231a1.231,1.231,0,1,0,0,2.462h9.231a1.231,1.231,0,1,0,0-2.462Z" transform="translate(0 -208)" fill="#555b5d"/>
      </g>
    </g>
    <g id="Group_320" data-name="Group 320" transform="translate(11.077 44.308)">
      <g id="Group_319" data-name="Group 319">
        <path id="Path_103" data-name="Path 103" d="M294.154,352h-4.923a1.231,1.231,0,0,0,0,2.462h4.923a1.231,1.231,0,0,0,0-2.462Z" transform="translate(-288 -352)" fill="#555b5d"/>
      </g>
    </g>
    <g id="Group_322" data-name="Group 322" transform="translate(0 43.077)">
      <g id="Group_321" data-name="Group 321">
        <path id="Path_104" data-name="Path 104" d="M9.231,320A1.231,1.231,0,0,0,8,321.231H1.231a1.231,1.231,0,0,0,0,2.462H8a1.231,1.231,0,1,0,2.462,0v-2.462A1.231,1.231,0,0,0,9.231,320Z" transform="translate(0 -320)" fill="#555b5d"/>
      </g>
    </g>
  </g>
</svg>
