<svg id="圖層_1" data-name="圖層 1" xmlns="http://www.w3.org/2000/svg" viewBox="0 0 108 108"><defs><style>.cls-1{fill:#2d2d2d;}</style></defs><path class="cls-1" d="M96.42,29.66H80.55A14.1,14.1,0,0,0,83.26,26a12.83,12.83,0,0,0,.07-10.48A12,12,0,0,0,75.4,8.78c-5.69-1.62-11.55.37-16.94,5.76A23.12,23.12,0,0,0,54,20.78a23.12,23.12,0,0,0-4.46-6.24C44.15,9.15,38.29,7.16,32.6,8.78a12,12,0,0,0-7.93,6.75A12.83,12.83,0,0,0,24.74,26a14.1,14.1,0,0,0,2.71,3.65H11.58a3,3,0,0,0-3,3V49.27a3,3,0,0,0,3,3h1.84v44.5a3,3,0,0,0,3,3H91.58a3,3,0,0,0,3-3V52.27h1.84a3,3,0,0,0,3-3V32.66A3,3,0,0,0,96.42,29.66Zm-3,16.61h-27V35.66h27Zm-44,47.5V35.66h11V93.77Zm13.28-75c3.81-3.81,7.53-5.24,11-4.23A6,6,0,0,1,77.84,18a6.72,6.72,0,0,1,0,5.37c-1.83,3.67-7.33,5.75-9.67,6.34H57.61A17.89,17.89,0,0,1,62.7,18.78ZM30.11,23.32A6.72,6.72,0,0,1,30.16,18a6,6,0,0,1,4.09-3.4c3.51-1,7.23.42,11,4.23a17.91,17.91,0,0,1,5.09,10.88H39.78C37.44,29.07,31.94,27,30.11,23.32ZM14.58,35.66H43.42V46.27H14.58Zm4.84,16.61h24v41.5h-24Zm69.16,41.5H66.42V52.27H88.58Z"/></svg>