<svg id="icon_edit_sm" xmlns="http://www.w3.org/2000/svg" width="7.826" height="7.818" viewBox="0 0 7.826 7.818">
  <path id="Path_170" data-name="Path 170" d="M4.833,82.473.527,86.779a.172.172,0,0,0-.045.079L0,88.773a.169.169,0,0,0,.164.211.168.168,0,0,0,.041-.005L2.126,88.5a.169.169,0,0,0,.079-.045l4.306-4.306Zm0,0" transform="translate(0 -81.166)" fill="#348cc5"/>
  <path id="Path_171" data-name="Path 171" d="M336.593.966l-.479-.479a.868.868,0,0,0-1.2,0l-.587.587,1.678,1.678.587-.587a.848.848,0,0,0,0-1.2Zm0,0" transform="translate(-329.015 -0.246)" fill="#348cc5"/>
</svg>
