<svg xmlns="http://www.w3.org/2000/svg" width="15.82" height="10.878" viewBox="0 0 15.82 10.878">
  <g id="icon_record_list" transform="translate(-0.001 -80)">
    <g id="Group_201" data-name="Group 201" transform="translate(2.972 80)">
      <g id="Group_200" data-name="Group 200" transform="translate(0 0)">
        <path id="Path_83" data-name="Path 83" d="M107.053,80H97.168a.988.988,0,0,0,0,1.977h9.884a.988.988,0,1,0,0-1.977Z" transform="translate(-96.18 -80)" fill="#555b5d"/>
      </g>
    </g>
    <g id="Group_203" data-name="Group 203" transform="translate(0.001 80.004)">
      <g id="Group_202" data-name="Group 202" transform="translate(0 0)">
        <path id="Path_84" data-name="Path 84" d="M1.983,81.119a.988.988,0,0,0-1.977,0,.842.842,0,0,0,0,.193.891.891,0,0,0,.054.188,1.147,1.147,0,0,0,.094.168.9.9,0,0,0,.124.153.875.875,0,0,0,.148.119.805.805,0,0,0,.168.094.816.816,0,0,0,.208.074.867.867,0,0,0,.193,0,.988.988,0,0,0,.7-.287.9.9,0,0,0,.124-.153,1.147,1.147,0,0,0,.094-.168.918.918,0,0,0,.074-.188A.842.842,0,0,0,1.983,81.119Z" transform="translate(-0.001 -80.135)" fill="#555b5d"/>
      </g>
    </g>
    <g id="Group_205" data-name="Group 205" transform="translate(0.006 84.452)">
      <g id="Group_204" data-name="Group 204" transform="translate(0 0)">
        <path id="Path_85" data-name="Path 85" d="M2.157,225.119a.845.845,0,0,0,0-.193.8.8,0,0,0-.074-.183.988.988,0,0,0-.094-.173.712.712,0,0,0-.124-.148.988.988,0,0,0-1.685.7.986.986,0,0,0,.163.549.948.948,0,0,0,.128.148.722.722,0,0,0,.148.124.8.8,0,0,0,.168.094.84.84,0,0,0,.188.054.82.82,0,0,0,.193.02.839.839,0,0,0,.193,0,.8.8,0,0,0,.183-.054.825.825,0,0,0,.173-.094.721.721,0,0,0,.148-.124.721.721,0,0,0,.124-.148.8.8,0,0,0,.094-.168.836.836,0,0,0,.074-.208A.818.818,0,0,0,2.157,225.119Z" transform="translate(-0.18 -224.135)" fill="#555b5d"/>
      </g>
    </g>
    <g id="Group_207" data-name="Group 207" transform="translate(0.006 88.9)">
      <g id="Group_206" data-name="Group 206">
        <path id="Path_86" data-name="Path 86" d="M2.155,369.119a.848.848,0,0,0,0-.193.84.84,0,0,0-.074-.188,1.146,1.146,0,0,0-.094-.168.722.722,0,0,0-.124-.148.988.988,0,0,0-1.394,0,.722.722,0,0,0-.124.148,1.146,1.146,0,0,0-.094.168.809.809,0,0,0-.054.188.849.849,0,0,0-.02.193.989.989,0,0,0,.292.7.723.723,0,0,0,.148.124.8.8,0,0,0,.168.094.84.84,0,0,0,.188.054.82.82,0,0,0,.193.02.841.841,0,0,0,.193,0,.8.8,0,0,0,.183-.054.824.824,0,0,0,.173-.094.722.722,0,0,0,.148-.124.721.721,0,0,0,.124-.148.79.79,0,0,0,.094-.168.838.838,0,0,0,.074-.208A.818.818,0,0,0,2.155,369.119Z" transform="translate(-0.178 -368.135)" fill="#555b5d"/>
      </g>
    </g>
    <g id="Group_209" data-name="Group 209" transform="translate(2.972 84.448)">
      <g id="Group_208" data-name="Group 208" transform="translate(0 0)">
        <path id="Path_87" data-name="Path 87" d="M108.041,224H97.168a.988.988,0,1,0,0,1.977h10.873a.988.988,0,0,0,0-1.977Z" transform="translate(-96.18 -224)" fill="#555b5d"/>
      </g>
    </g>
    <g id="Group_211" data-name="Group 211" transform="translate(2.972 88.896)">
      <g id="Group_210" data-name="Group 210">
        <path id="Path_88" data-name="Path 88" d="M103.593,368H97.168a.988.988,0,1,0,0,1.977h6.425a.988.988,0,1,0,0-1.977Z" transform="translate(-96.18 -368)" fill="#555b5d"/>
      </g>
    </g>
  </g>
</svg>
