<svg id="圖層_1" data-name="圖層 1" xmlns="http://www.w3.org/2000/svg" viewBox="0 0 108 108"><defs><style>.cls-1{fill:#555b5d;}</style></defs><path class="cls-1" d="M91.86,12.27H15.32a3,3,0,0,0-3,3V91a3,3,0,0,0,3,3l39.76,0h0l36.78,0a3,3,0,0,0,3-3V15.27A3,3,0,0,0,91.86,12.27Zm-3,6v40L77.19,43.87a3,3,0,0,0-2.08-1.1,3,3,0,0,0-2.23.74L45.47,67.65l-9.82-7.3a3,3,0,0,0-3.61,0L18.32,70.88V18.27ZM55.07,88,18.32,88V78.44L33.89,66.52l10,7.4a3,3,0,0,0,3.77-.16L74.5,50.08,88.86,67.75V88Z"/><path class="cls-1" d="M42.86,54.76a15,15,0,1,0-15-15A15,15,0,0,0,42.86,54.76Zm0-24a9,9,0,1,1-9,9A9,9,0,0,1,42.86,30.76Z"/></svg>