<svg id="圖層_1" data-name="圖層 1" xmlns="http://www.w3.org/2000/svg" viewBox="0 0 108 108"><defs><style>.cls-1{fill:#2d2d2d;}</style></defs><path class="cls-1" d="M104.29,35.24c-3.21-16.07-13.83-22.09-22.17-24.31C69,7.44,58.33,16.93,54,21.61,49.67,16.93,39,7.44,25.88,10.93c-8.34,2.22-19,8.24-22.17,24.31-1,5.23-.06,19.07,7,28.85C21.47,78.92,43.83,95.27,52.31,99.51a3.07,3.07,0,0,0,1.34.32,2.07,2.07,0,0,0,.35,0,2.07,2.07,0,0,0,.35,0,3.07,3.07,0,0,0,1.34-.32c8.48-4.24,30.84-20.59,41.59-35.42C104.35,54.31,105.34,40.47,104.29,35.24ZM92.42,60.57C82.47,74.3,62,89.26,54,93.62c-8-4.36-28.47-19.32-38.42-33.05-5.64-7.8-6.88-19.69-6-24.16,2.1-10.46,8.1-17.09,17.84-19.69,12.8-3.41,23.69,10.73,23.83,10.91A3,3,0,0,0,54,28.79a3,3,0,0,0,2.73-1.16c.11-.14,11-14.33,23.83-10.91,9.74,2.6,15.74,9.23,17.84,19.69C99.3,40.88,98.06,52.77,92.42,60.57Z"/></svg>