<svg xmlns="http://www.w3.org/2000/svg" viewBox="0 0 108 108"><defs><style>.cls-1{fill:#555b5d;}</style></defs><g id="圖層_1" data-name="圖層 1"><path class="cls-1" d="M82.94,39.27a3,3,0,1,0-6,.22c.18,4.77.14,18.18-2.15,23a22,22,0,0,1-20.69,13h-.2a22,22,0,0,1-20.69-13c-2.29-4.79-2.33-18.2-2.15-23a3,3,0,0,0-6-.22c-.07,1.9-.6,18.8,2.74,25.77A28,28,0,0,0,51,81.4v7.85H41a3,3,0,0,0,0,6H67.7a3,3,0,0,0,0-6H57V81.41A28,28,0,0,0,80.2,65C83.54,58.07,83,41.17,82.94,39.27Z"/><path class="cls-1" d="M54,70a16.52,16.52,0,0,0,16.5-16.5V29.25a16.5,16.5,0,0,0-33,0V53.49A16.52,16.52,0,0,0,54,70ZM43.5,29.25a10.5,10.5,0,0,1,21,0V53.49a10.5,10.5,0,1,1-21,0Z"/></g></svg>