<svg id="圖層_1" data-name="圖層 1" xmlns="http://www.w3.org/2000/svg" viewBox="0 0 108 108"><defs><style>.cls-1{fill:#348cc5;}</style></defs><path class="cls-1" d="M36.67,60.93a2.47,2.47,0,0,0,1.83.81,2.38,2.38,0,0,0,.91-.18A2.49,2.49,0,0,0,41,59.24V44H60.87c16.77,0,18.12,0,21.5,1.73.27.14,6.79,3.61,7.64,13a2.5,2.5,0,0,0,4.72.9c.27-.52,6.48-13-.63-24C87.48,25.41,79.81,24,72.5,24H41V8.5a2.51,2.51,0,0,0-4.32-1.72L12.93,31.88a2.49,2.49,0,0,0,0,3.42ZM36,14.78V26.5A2.5,2.5,0,0,0,38.5,29h34c7.19,0,12.34,1.53,17.4,9.36a17.16,17.16,0,0,1,2.49,11,20,20,0,0,0-7.77-8.08C80.09,39,77.9,39,60.87,39H38.5A2.5,2.5,0,0,0,36,41.5V52.86L18.17,33.62Z"/><path class="cls-1" d="M97.09,74.7,73.33,49.07A2.5,2.5,0,0,0,69,50.76V66H49.13C32.36,66,31,66,27.63,64.27c-.27-.14-6.79-3.61-7.64-13a2.5,2.5,0,0,0-4.72-.9c-.27.52-6.48,13,.63,24C22.52,84.59,30.19,86,37.5,86H69v15.5a2.51,2.51,0,0,0,2.5,2.5,2.52,2.52,0,0,0,1.82-.78l23.75-25.1A2.49,2.49,0,0,0,97.09,74.7ZM74,95.22V83.5A2.5,2.5,0,0,0,71.5,81h-34c-7.19,0-12.34-1.53-17.4-9.36a17.16,17.16,0,0,1-2.49-11,20,20,0,0,0,7.77,8.08C29.91,71,32.1,71,49.13,71H71.5A2.5,2.5,0,0,0,74,68.5V57.14L91.83,76.38Z"/></svg>