<svg id="圖層_1" data-name="圖層 1" xmlns="http://www.w3.org/2000/svg" viewBox="0 0 108 108"><defs><style>.cls-1{fill:#2d2d2d;}</style></defs><path class="cls-1" d="M86.39,91.77H24.48a9,9,0,0,1-8.94-9V30.48a8.94,8.94,0,0,1,8.94-8.94H86.39a9,9,0,0,1,9,8.94V82.82A9,9,0,0,1,86.39,91.77ZM27,86.84h57a6.48,6.48,0,0,0,6.48-6.48V33a6.49,6.49,0,0,0-6.48-6.49H27A6.5,6.5,0,0,0,20.46,33V80.36A6.49,6.49,0,0,0,27,86.84Z"/><path class="cls-1" d="M18.12,81.1a2.5,2.5,0,0,1-1.71-4.32L34.59,59.67a2.49,2.49,0,0,1,3.31-.1l5.6,4.66L64.41,43.51a2.5,2.5,0,0,1,3.49,0l26.33,25.2a2.5,2.5,0,1,1-3.46,3.62L66.2,48.78,45.4,69.38a2.5,2.5,0,0,1-3.36.14l-5.64-4.7L19.84,80.42A2.47,2.47,0,0,1,18.12,81.1Z"/><path class="cls-1" d="M36.5,49.64a8.14,8.14,0,1,1,8.14-8.14A8.15,8.15,0,0,1,36.5,49.64Zm0-12a3.86,3.86,0,1,0,3.86,3.86A3.86,3.86,0,0,0,36.5,37.64Z"/></svg>