<svg id="icon_lock_w" xmlns="http://www.w3.org/2000/svg" width="29.393" height="36.885" viewBox="0 0 29.393 36.885">
  <g id="Group_43" data-name="Group 43" transform="translate(0 0)">
    <g id="Group_42" data-name="Group 42">
      <path id="Path_29" data-name="Path 29" d="M77.07,13.544H61.795V7.62a4.9,4.9,0,0,1,9.8,0v5.924h2.882V7.62a7.782,7.782,0,0,0-15.561,0v5.924H56.322A4.327,4.327,0,0,0,52,17.866v14.7a4.327,4.327,0,0,0,4.322,4.322H77.07a4.327,4.327,0,0,0,4.322-4.322v-14.7A4.327,4.327,0,0,0,77.07,13.544Zm1.441,19.019A1.442,1.442,0,0,1,77.07,34H56.322a1.442,1.442,0,0,1-1.441-1.441v-14.7a1.442,1.442,0,0,1,1.441-1.441H77.07a1.442,1.442,0,0,1,1.441,1.441Z" transform="translate(-52 0)" fill="#fff"/>
    </g>
  </g>
  <g id="Group_45" data-name="Group 45" transform="translate(12.031 20.604)">
    <g id="Group_44" data-name="Group 44">
      <path id="Path_30" data-name="Path 30" d="M221.665,286a2.665,2.665,0,0,0-1.443,4.906v3.163a1.441,1.441,0,1,0,2.882,0v-3.159A2.665,2.665,0,0,0,221.665,286Z" transform="translate(-219 -286)" fill="#fff"/>
    </g>
  </g>
</svg>
