<svg id="圖層_1" data-name="圖層 1" xmlns="http://www.w3.org/2000/svg" viewBox="0 0 108 108"><defs><style>.cls-1{fill:#fff;}</style></defs><path class="cls-1" d="M54,70a16.52,16.52,0,0,0,16.5-16.5V38.82L90.79,18.63a3,3,0,1,0-4.23-4.26l-16.06,16v-1.1a16.5,16.5,0,0,0-33,0V53.49a16.42,16.42,0,0,0,2,7.76L35,65.64a24.9,24.9,0,0,1-1.82-3.18c-2.29-4.79-2.33-18.2-2.15-23a3,3,0,0,0-6-.22c-.07,1.9-.6,18.8,2.74,25.77a31.37,31.37,0,0,0,2.91,4.9L17.21,83.37a3,3,0,0,0,4.23,4.26L34.73,74.41A27.82,27.82,0,0,0,51,81.4v7.85H41a3,3,0,0,0,0,6H67.7a3,3,0,0,0,0-6H57V81.41A28,28,0,0,0,80.2,65c3.34-7,2.81-23.87,2.74-25.77a3,3,0,1,0-6,.22c.18,4.77.14,18.18-2.15,23a22,22,0,0,1-20.69,13h-.2A21.77,21.77,0,0,1,39,70.16L43.22,66A16.42,16.42,0,0,0,54,70Zm10.5-16.5A10.51,10.51,0,0,1,54,64a10.39,10.39,0,0,1-6.51-2.28l17-16.93Zm-21,0V29.25a10.5,10.5,0,0,1,21,0v7.07L44,56.71A10.43,10.43,0,0,1,43.5,53.49Z"/></svg>