<svg id="圖層_1" data-name="圖層 1" xmlns="http://www.w3.org/2000/svg" viewBox="0 0 108 108"><defs><style>.cls-1{fill:#2d2d2d;}</style></defs><path class="cls-1" d="M69.21,85.9H20.1a8.44,8.44,0,0,1-8.44-8.45V33.35A8.44,8.44,0,0,1,20.1,24.9H69.21a8.45,8.45,0,0,1,8.45,8.45v44.1A8.45,8.45,0,0,1,69.21,85.9Zm-46.61-5H66.71a6,6,0,0,0,6-6V35.85a6,6,0,0,0-6-6H22.6a5.94,5.94,0,0,0-5.94,6V75A5.94,5.94,0,0,0,22.6,80.9Z"/><path class="cls-1" d="M58.66,58.4a2.5,2.5,0,0,1-1.24-.33l-19.22-11s0,0,0,0v8.65a2.6,2.6,0,0,1-1.9,2.57,2.5,2.5,0,0,1-3.1-2.43V42.76a2.49,2.49,0,0,1,3.74-2.17L59.76,53.65A2.6,2.6,0,0,1,60.89,57,2.51,2.51,0,0,1,58.66,58.4Z"/><path class="cls-1" d="M35.66,71.54a2.46,2.46,0,0,1-1.26-.34A2.49,2.49,0,0,1,33.16,69V56a2.6,2.6,0,0,1,1.9-2.57,2.5,2.5,0,0,1,3.1,2.43v8.79s0,0,0,0l19.22-11a2.5,2.5,0,0,1,3.46,1,2.61,2.61,0,0,1-1.12,3.4L36.9,71.21A2.53,2.53,0,0,1,35.66,71.54Z"/><path class="cls-1" d="M98.56,62.33a2.6,2.6,0,0,1-1.9-2.57V42.87s0,0,0,0L85.21,48.17a2.5,2.5,0,0,1-3.36-1.31,2.6,2.6,0,0,1,1.4-3.29L98.1,36.63a2.51,2.51,0,0,1,3.56,2.27v21A2.5,2.5,0,0,1,98.56,62.33Z"/><path class="cls-1" d="M99.16,77.4a2.63,2.63,0,0,1-1.06-.23L83.24,70.23a2.61,2.61,0,0,1-1.39-3.29,2.5,2.5,0,0,1,3.36-1.31L96.62,71s0,0,0,0V54a2.6,2.6,0,0,1,1.9-2.57,2.5,2.5,0,0,1,3.1,2.43v21A2.51,2.51,0,0,1,100.5,77,2.49,2.49,0,0,1,99.16,77.4Z"/></svg>