<svg id="圖層_1" data-name="圖層 1" xmlns="http://www.w3.org/2000/svg" viewBox="0 0 108 108"><defs><style>.cls-1{fill:#348cc5;}</style></defs><path class="cls-1" d="M54.93,11.5a45,45,0,1,0,45,45A45,45,0,0,0,54.93,11.5ZM68.1,71.3a9.88,9.88,0,0,1-2.29,3.44,11.43,11.43,0,0,1-3.61,2.32,16.8,16.8,0,0,1-4.74,1.13v5.57H52.91V78.22a16.73,16.73,0,0,1-4.48-1.06,11.63,11.63,0,0,1-3.81-2.39,11.42,11.42,0,0,1-2.67-4,14.83,14.83,0,0,1-1-5.75H47.8a9.22,9.22,0,0,0,.65,3.7,6.56,6.56,0,0,0,1.67,2.34,6.16,6.16,0,0,0,2.33,1.23,9.67,9.67,0,0,0,2.61.36,7.64,7.64,0,0,0,5.19-1.59,5.4,5.4,0,0,0,1.8-4.26,6.29,6.29,0,0,0-.38-2.21,5.27,5.27,0,0,0-1.25-1.85,9.9,9.9,0,0,0-2.24-1.58,23,23,0,0,0-3.35-1.39,36,36,0,0,1-5.08-2.05,16.14,16.14,0,0,1-3.87-2.63,10.57,10.57,0,0,1-2.47-3.5A11.74,11.74,0,0,1,42.55,47a11.92,11.92,0,0,1,.78-4.4,10.3,10.3,0,0,1,2.19-3.47A11.06,11.06,0,0,1,49,36.7a15.09,15.09,0,0,1,4.52-1.2V29.25h4.59v6.3A13.26,13.26,0,0,1,62.53,37a10.92,10.92,0,0,1,3.34,2.73,12,12,0,0,1,2.1,4,17.27,17.27,0,0,1,.74,5.22H61.85a11.34,11.34,0,0,0-.43-3.26,7.28,7.28,0,0,0-1.23-2.46,5.47,5.47,0,0,0-2-1.57,6.18,6.18,0,0,0-2.65-.54,7.84,7.84,0,0,0-2.76.43,5.1,5.1,0,0,0-1.91,1.19,4.89,4.89,0,0,0-1.12,1.83,7.18,7.18,0,0,0-.37,2.37,6.36,6.36,0,0,0,.36,2.21A4.7,4.7,0,0,0,51,50.92a9.68,9.68,0,0,0,2.27,1.57,25.76,25.76,0,0,0,3.5,1.44A43.49,43.49,0,0,1,61.84,56a16.19,16.19,0,0,1,3.83,2.64,10.25,10.25,0,0,1,2.4,3.48,11.76,11.76,0,0,1,.84,4.62A11.94,11.94,0,0,1,68.1,71.3Z"/></svg>