<svg id="icon_light_mode" xmlns="http://www.w3.org/2000/svg" width="20" height="20" viewBox="0 0 20 20">
  <path id="Path_31" data-name="Path 31" d="M121,126.273A5.273,5.273,0,1,0,126.273,121,5.279,5.279,0,0,0,121,126.273Zm5.273-4.1a4.1,4.1,0,1,1-4.1,4.1A4.106,4.106,0,0,1,126.273,122.172Z" transform="translate(-116.273 -116.273)" fill="#348cc5"/>
  <path id="Path_32" data-name="Path 32" d="M368.451,368.45a.586.586,0,0,0,0,.829l2.829,2.829a.586.586,0,1,0,.829-.829l-2.829-2.829A.586.586,0,0,0,368.451,368.45Z" transform="translate(-353.894 -353.893)" fill="#348cc5"/>
  <path id="Path_33" data-name="Path 33" d="M42.295,41.466a.586.586,0,0,0-.829.829L44.3,45.124a.586.586,0,0,0,.829-.829Z" transform="translate(-39.681 -39.681)" fill="#348cc5"/>
  <path id="Path_34" data-name="Path 34" d="M41.466,372.109a.586.586,0,0,0,.829,0l2.829-2.829a.586.586,0,0,0-.829-.829l-2.829,2.829A.586.586,0,0,0,41.466,372.109Z" transform="translate(-39.681 -353.894)" fill="#348cc5"/>
  <path id="Path_35" data-name="Path 35" d="M372.109,41.466a.586.586,0,0,0-.829,0L368.451,44.3a.586.586,0,0,0,.829.829l2.829-2.829A.586.586,0,0,0,372.109,41.466Z" transform="translate(-353.894 -39.681)" fill="#348cc5"/>
  <path id="Path_36" data-name="Path 36" d="M310.241,407.34a.586.586,0,0,0-.317.766l.448,1.083a.586.586,0,0,0,1.083-.448l-.448-1.083A.586.586,0,0,0,310.241,407.34Z" transform="translate(-297.775 -391.385)" fill="#348cc5"/>
  <path id="Path_37" data-name="Path 37" d="M161.891,49.192a.586.586,0,0,0,.317-.766l-.448-1.083a.586.586,0,1,0-1.083.448l.448,1.083A.586.586,0,0,0,161.891,49.192Z" transform="translate(-154.358 -45.147)" fill="#348cc5"/>
  <path id="Path_38" data-name="Path 38" d="M48.426,309.924l-1.083.448a.586.586,0,1,0,.448,1.083l1.083-.448a.586.586,0,0,0-.448-1.083Z" transform="translate(-45.146 -297.775)" fill="#348cc5"/>
  <path id="Path_39" data-name="Path 39" d="M408.1,162.21l1.083-.448a.586.586,0,1,0-.449-1.083l-1.083.448a.586.586,0,1,0,.448,1.083Z" transform="translate(-391.385 -154.359)" fill="#348cc5"/>
  <path id="Path_40" data-name="Path 40" d="M161.127,407.657l-.448,1.083a.586.586,0,0,0,1.083.448l.448-1.083a.586.586,0,1,0-1.083-.448Z" transform="translate(-154.359 -391.385)" fill="#348cc5"/>
  <path id="Path_41" data-name="Path 41" d="M311.006,48.875l.448-1.083a.586.586,0,1,0-1.083-.448l-.449,1.083a.586.586,0,0,0,1.083.448Z" transform="translate(-297.774 -45.147)" fill="#348cc5"/>
  <path id="Path_42" data-name="Path 42" d="M48.874,161.127l-1.083-.448a.586.586,0,1,0-.448,1.083l1.083.448a.586.586,0,0,0,.448-1.083Z" transform="translate(-45.146 -154.359)" fill="#348cc5"/>
  <path id="Path_43" data-name="Path 43" d="M409.187,310.373l-1.083-.448a.586.586,0,0,0-.448,1.083l1.083.448a.586.586,0,1,0,.449-1.083Z" transform="translate(-391.385 -297.775)" fill="#348cc5"/>
  <path id="Path_44" data-name="Path 44" d="M241,421.586v2.383a.586.586,0,0,0,1.172,0v-2.383a.586.586,0,0,0-1.172,0Z" transform="translate(-231.586 -404.555)" fill="#348cc5"/>
  <path id="Path_45" data-name="Path 45" d="M242.172,2.969V.586a.586.586,0,0,0-1.172,0V2.969a.586.586,0,0,0,1.172,0Z" transform="translate(-231.586)" fill="#348cc5"/>
  <path id="Path_46" data-name="Path 46" d="M0,241.586a.586.586,0,0,0,.586.586H2.969a.586.586,0,0,0,0-1.172H.586A.586.586,0,0,0,0,241.586Z" transform="translate(0 -231.586)" fill="#348cc5"/>
  <path id="Path_47" data-name="Path 47" d="M423.969,241h-2.383a.586.586,0,0,0,0,1.172h2.383a.586.586,0,0,0,0-1.172Z" transform="translate(-404.555 -231.586)" fill="#348cc5"/>
</svg>
