<svg xmlns="http://www.w3.org/2000/svg" width="17.067" height="16" viewBox="0 0 17.067 16">
  <g id="icon_chat_w" transform="translate(0 -16)">
    <g id="Group_302" data-name="Group 302" transform="translate(0 16)">
      <path id="Path_98" data-name="Path 98" d="M8.5,16C3.813,16,0,19.364,0,23.5a6.989,6.989,0,0,0,1.95,4.782,3.041,3.041,0,0,1-.8,2.865A.5.5,0,0,0,1.5,32a5.513,5.513,0,0,0,3.819-1.542A9.429,9.429,0,0,0,8.5,31c4.687,0,8.567-3.364,8.567-7.5S13.187,16,8.5,16ZM4.567,25a1.5,1.5,0,1,1,1.5-1.5A1.5,1.5,0,0,1,4.567,25Zm4,0a1.5,1.5,0,1,1,1.5-1.5A1.5,1.5,0,0,1,8.567,25Zm4,0a1.5,1.5,0,1,1,1.5-1.5A1.5,1.5,0,0,1,12.567,25Z" transform="translate(0 -16)" fill="#fff"/>
    </g>
  </g>
</svg>
