<svg id="圖層_1" data-name="圖層 1" xmlns="http://www.w3.org/2000/svg" viewBox="0 0 108 108"><defs><style>.cls-1{fill:#348cc5;}</style></defs><path class="cls-1" d="M80.08,67.16a3,3,0,0,0-1.32-4L57,52.11V29a3,3,0,0,0-6,0V54a3,3,0,0,0,1.65,2.67L76.05,68.48a3,3,0,0,0,1.36.32A3,3,0,0,0,80.08,67.16Z"/><path class="cls-1" d="M51.21,91.85A37,37,0,1,1,76.26,25.42l-4.6.56A3,3,0,0,0,72,32l.37,0L84,30.52A3,3,0,0,0,86.54,27L84.26,13.77a3,3,0,1,0-5.92,1l.94,5.41A43,43,0,1,0,50.84,97.84a3,3,0,0,0,.37-6Z"/><path class="cls-1" d="M86.53,38.79l1.94,3.61A3,3,0,0,0,91.11,44a3.05,3.05,0,0,0,1.42-.36,3,3,0,0,0,1.23-4.06L91.82,36a3,3,0,0,0-5.29,2.83Z"/><path class="cls-1" d="M97.13,53.11a3,3,0,1,0-6,0l0,4.1a3,3,0,0,0,1.6,2.64,3.1,3.1,0,0,0,1.42.34,3,3,0,0,0,3-3Z"/><path class="cls-1" d="M93,66.5a3,3,0,0,0-3.9,1.66L87.6,72a3,3,0,0,0,.49,3,2.94,2.94,0,0,0,1.18.85,3,3,0,0,0,3.9-1.67l1.52-3.8A3,3,0,0,0,93,66.5Z"/><path class="cls-1" d="M81.63,81.59l-3,2.76a3,3,0,0,0-.88,3,2.87,2.87,0,0,0,.69,1.28,3,3,0,0,0,4.24.19l3-2.77a3,3,0,1,0-4.05-4.42Z"/><path class="cls-1" d="M69,90.66l-3.85,1.42a3,3,0,0,0-1.93,2.4,2.91,2.91,0,0,0,.16,1.45,3,3,0,0,0,3.85,1.77l3.84-1.41A3,3,0,1,0,69,90.66Z"/></svg>