<svg xmlns="http://www.w3.org/2000/svg" width="17.427" height="12.54" viewBox="0 0 17.427 12.54">
  <path id="icon_view_num" d="M11.929,12.54H7.4c-.629,0-.955-.366-.965-.7s0-.372,0-.533.043-.185.137-.705A5.166,5.166,0,0,1,7.884,8.375a5.207,5.207,0,0,1,2.949-1.3h2.193a5.207,5.207,0,0,1,2.949,1.3A5.166,5.166,0,0,1,17.284,10.6c.094.52.134.544.137.705s.01.2,0,.533-.336.7-.965.7Zm-6.917,0h0Zm0,0H.97a1.124,1.124,0,0,1-.715-.225A.655.655,0,0,1,0,11.839C0,11.577,0,11.5,0,11.4H0c0-.028,0-.056,0-.091a.908.908,0,0,1,.036-.224c.022-.09.055-.227.1-.481A3.632,3.632,0,0,1,.563,9.569,6.077,6.077,0,0,1,.957,8.96a5.563,5.563,0,0,1,.494-.585,3.485,3.485,0,0,1,.66-.514,6.071,6.071,0,0,1,1.62-.688,2.855,2.855,0,0,1,.669-.1H6.593a2.162,2.162,0,0,1,.338.031l-.222.232a7.879,7.879,0,0,0-.816,1,6.438,6.438,0,0,0-.541.954,5.346,5.346,0,0,0-.462,1.663,4.742,4.742,0,0,0-.023.655,4.21,4.21,0,0,0,.047.5,2.631,2.631,0,0,0,.1.433ZM8.835,3.13a3.181,3.181,0,0,1,6.362,0,3.181,3.181,0,0,1-6.362,0ZM4.2,6.2A3.19,3.19,0,0,1,2.59,5.343,3.162,3.162,0,0,1,2.2,4.88a3.112,3.112,0,0,1-.293-.532,3.088,3.088,0,0,1,0-2.437A3.112,3.112,0,0,1,2.2,1.38,3.173,3.173,0,0,1,3.061.535,3.192,3.192,0,0,1,4.2.064a3.263,3.263,0,0,1,1.282,0A3.19,3.19,0,0,1,7.089.917a3.164,3.164,0,0,1,.388.463,3.115,3.115,0,0,1,.293.532,3.088,3.088,0,0,1,0,2.437,3.115,3.115,0,0,1-.293.532,3.173,3.173,0,0,1-.859.845A3.192,3.192,0,0,1,5.481,6.2,3.263,3.263,0,0,1,4.2,6.2Z" transform="translate(0.001)" fill="#fff"/>
</svg>
