<svg xmlns="http://www.w3.org/2000/svg" width="14.601" height="14.603" viewBox="0 0 14.601 14.603">
  <g id="icon_link" transform="translate(-311.896 -350)">
    <g id="link" transform="translate(312.857 358)">
      <g id="Group_146" data-name="Group 146" transform="translate(4.442 -8)">
        <g id="Group_145" data-name="Group 145" transform="translate(0 0)">
          <path id="Path_78" data-name="Path 78" d="M197.7,1a3.407,3.407,0,0,0-4.818,0l-2.553,2.55a.244.244,0,0,0,.178.416h.09a4.088,4.088,0,0,1,1.555.3.243.243,0,0,0,.265-.054l1.832-1.83a1.461,1.461,0,0,1,2.066,2.066l-2.283,2.28-.019.022-.8.793a1.46,1.46,0,0,1-2.064,0,1,1,0,0,0-1.368,0,.97.97,0,0,0,0,1.373,3.378,3.378,0,0,0,.973.681c.051.024.1.044.153.066s.1.039.156.058.1.037.156.051l.144.039c.1.024.195.044.294.061a3.388,3.388,0,0,0,.363.034h.185l.146-.017c.054,0,.11-.015.173-.015h.083l.168-.024.078-.015L193,9.81h.027a3.407,3.407,0,0,0,1.579-.9l3.1-3.1A3.407,3.407,0,0,0,197.7,1Z" transform="translate(-189.502 0)" fill="#555b5d"/>
        </g>
      </g>
    </g>
    <g id="Group_144" data-name="Group 144" transform="translate(311.896 354.694)">
      <g id="Group_143" data-name="Group 143" transform="translate(0)">
        <path id="Path_77" data-name="Path 77" d="M8.948,165.612a3.313,3.313,0,0,0-.572-.46,3.407,3.407,0,0,0-4.246.46l-3.1,3.1A3.407,3.407,0,0,0,5.85,173.53l2.555-2.555a.243.243,0,0,0-.173-.416h-.1a4.1,4.1,0,0,1-1.557-.3.243.243,0,0,0-.265.054l-1.837,1.84a1.461,1.461,0,0,1-2.066-2.066l3.108-3.105a1.46,1.46,0,0,1,2.064,0,1,1,0,0,0,1.368,0,.964.964,0,0,0,0-1.368Z" transform="translate(-0.039 -164.614)" fill="#555b5d"/>
      </g>
    </g>
  </g>
</svg>
