<svg xmlns="http://www.w3.org/2000/svg" width="17.194" height="14" viewBox="0 0 17.194 14">
  <g id="photo-camera-interface-symbol-for-button" transform="translate(0 -3.36)">
    <path id="Path_81" data-name="Path 81" d="M11.37,11.52A2.773,2.773,0,1,1,8.6,8.747,2.776,2.776,0,0,1,11.37,11.52Zm5.824-3.938v7.876a1.9,1.9,0,0,1-1.9,1.9H1.9a1.9,1.9,0,0,1-1.9-1.9V7.583a1.9,1.9,0,0,1,1.9-1.9H4.24V5.024A1.663,1.663,0,0,1,5.9,3.36h5.387a1.663,1.663,0,0,1,1.664,1.664v.657h2.339A1.9,1.9,0,0,1,17.194,7.583ZM12.8,11.52a4.2,4.2,0,1,0-4.2,4.2A4.2,4.2,0,0,0,12.8,11.52Z" transform="translate(0 0)" fill="#555b5d"/>
  </g>
</svg>
