<svg xmlns="http://www.w3.org/2000/svg" width="15.877" height="15.877" viewBox="0 0 15.877 15.877">
  <g id="icon_points" transform="translate(0)">
    <path id="Path_82" data-name="Path 82" d="M13.552,2.325A7.939,7.939,0,0,0,2.325,13.552,7.939,7.939,0,0,0,13.552,2.325ZM7.938,7.442a2.232,2.232,0,0,1,.61,4.38.156.156,0,0,0-.114.149v.418a.505.505,0,0,1-.472.51.5.5,0,0,1-.52-.5v-.432a.155.155,0,0,0-.114-.149A2.236,2.236,0,0,1,5.706,9.689a.5.5,0,0,1,.482-.51.5.5,0,0,1,.511.5,1.24,1.24,0,1,0,1.24-1.24,2.232,2.232,0,0,1-.61-4.38.156.156,0,0,0,.114-.149V3.487a.505.505,0,0,1,.472-.51.5.5,0,0,1,.52.5v.432a.155.155,0,0,0,.114.149,2.236,2.236,0,0,1,1.623,2.133.5.5,0,0,1-.482.51.5.5,0,0,1-.511-.5,1.24,1.24,0,1,0-1.24,1.24Z" transform="translate(0)" fill="#348cc5"/>
  </g>
</svg>
