<svg id="圖層_1" data-name="圖層 1" xmlns="http://www.w3.org/2000/svg" viewBox="0 0 108 108"><defs><style>.cls-1{fill:#348cc5;}</style></defs><path class="cls-1" d="M101.28,15.53a3,3,0,0,0-2.12-.88h0l-90.32,0a3,3,0,0,0-3,3V80.35a3,3,0,0,0,3,3H18v15A3,3,0,0,0,19.6,101a3,3,0,0,0,1.4.35,3,3,0,0,0,1.7-.54L47.93,83.35H99.16a3,3,0,0,0,3-3V17.65A3,3,0,0,0,101.28,15.53ZM76.5,64.8H32.29a3,3,0,0,1,0-6H76.5a3,3,0,0,1,0,6Zm0-13H32.29a3,3,0,0,1,0-6H76.5a3,3,0,0,1,0,6Zm0-13H32.29a3,3,0,0,1,0-6H76.5a3,3,0,0,1,0,6Z"/></svg>