<svg id="label_authed_user" xmlns="http://www.w3.org/2000/svg" width="12" height="12" viewBox="0 0 12 12">
  <path id="Union_5" data-name="Union 5" d="M4.4,9.871c-1.225.66-2.253.833-2.731.355-.456-.456-.32-1.411.265-2.561C.744,7.267,0,6.7,0,6.063c0-.652.788-1.237,2.037-1.636-.672-1.237-.852-2.278-.37-2.76s1.523-.3,2.76.37C4.827.788,5.412,0,6.063,0S7.277.757,7.675,1.963c1.112-.55,2.032-.668,2.477-.223.468.468.313,1.461-.311,2.65,1.319.4,2.158,1,2.158,1.674,0,.655-.8,1.243-2.056,1.642.537,1.1.649,2.006.208,2.447s-1.349.329-2.447-.208C7.306,11.2,6.718,12,6.063,12S4.8,11.173,4.4,9.871Z" fill="#348cc5"/>
  <path id="Union_4" data-name="Union 4" d="M1.273,3.394,0,2.121l.848-.848L2.121,2.546,4.667,0l.848.848L2.121,4.242Z" transform="translate(2.942 4.024)" fill="#fff"/>
</svg>
